<svg width="235" height="235" viewBox="0 0 235 235" fill="none" xmlns="http://www.w3.org/2000/svg">
<path d="M0 32C0 14.3269 14.3269 0 32 0H203C220.673 0 235 14.3269 235 32V203C235 220.673 220.673 235 203 235H32C14.3269 235 0 220.673 0 203V32Z" fill="#F0EFF0"/>
<path d="M137.936 90.1094C137.947 90.2665 137.963 90.3996 137.963 90.532C137.963 90.8281 137.963 91.1241 137.963 91.4205C137.963 92.161 137.963 92.9013 137.963 93.6417C137.962 94.9745 137.963 96.307 137.97 97.6391C137.97 97.9959 137.882 98.1525 137.579 98.2627C128.701 101.469 119.829 104.689 110.955 107.905C110.843 107.946 110.725 107.97 110.582 108.01C110.574 107.843 110.56 107.71 110.56 107.578C110.56 107.134 110.559 106.69 110.559 106.245L110.559 104.468C110.559 103.135 110.559 101.802 110.553 100.47C110.553 100.121 110.629 99.9533 110.936 99.8418C119.828 96.63 128.718 93.4049 137.609 90.1825C137.706 90.1477 137.809 90.1373 137.936 90.1094Z" fill="#656267"/>
<path d="M137.935 101.738V104.303C137.728 104.372 137.536 104.432 137.347 104.502C128.588 107.679 119.83 110.86 111.067 114.022C111.017 114.04 110.971 114.059 110.93 114.08V111.515C110.971 111.494 111.017 111.476 111.067 111.457C119.83 108.295 128.588 105.114 137.347 101.937C137.536 101.867 137.728 101.808 137.935 101.738ZM110.93 111.515V114.08C110.872 114.106 110.817 114.141 110.765 114.183V111.618C110.817 111.576 110.872 111.541 110.93 111.515ZM110.765 111.618V114.183C110.726 114.215 110.69 114.255 110.66 114.302V111.737C110.688 111.693 110.723 111.654 110.765 111.618ZM110.66 111.737V114.302C110.591 114.409 110.559 114.547 110.551 114.731V112.166C110.559 111.982 110.591 111.845 110.66 111.737ZM110.551 112.166V114.731C110.549 114.766 110.549 114.803 110.549 114.842V112.277C110.549 112.238 110.55 112.201 110.551 112.166Z" fill="black"/>
<path d="M132.206 123.121C132.262 123.121 132.318 123.122 132.373 123.123C133.883 123.153 135.309 123.597 136.525 124.697C137.504 125.583 137.967 126.601 137.973 127.604C137.98 128.815 137.321 130.002 136.1 130.906C135.033 131.696 133.844 132.069 132.569 132.13H132.518C132.47 132.13 132.423 132.13 132.375 132.13C130.398 132.107 128.565 131.613 127.201 129.794C126.678 129.096 126.426 128.33 126.43 127.574C126.434 126.661 126.814 125.762 127.545 125.013C128.867 123.659 130.452 123.129 132.166 123.121H132.206Z" fill="#656267"/>
<path d="M141.001 126.648V129.213C141.002 129.448 140.997 129.677 140.987 129.902V127.337C140.997 127.112 141.002 126.883 141.001 126.648ZM140.987 127.337V129.902C140.906 131.67 140.471 133.142 139.7 134.341V131.776C140.471 130.577 140.906 129.105 140.987 127.337ZM139.7 131.776V134.341C139.31 134.949 138.834 135.487 138.273 135.958V133.393C138.834 132.922 139.31 132.384 139.7 131.776Z" fill="black"/>
<path d="M138.273 133.391V135.956C137.739 136.405 137.129 136.793 136.445 137.124V134.559C137.129 134.228 137.739 133.84 138.273 133.391Z" fill="black"/>
<path d="M136.445 134.559V137.124L136.42 137.136C135.489 137.584 134.561 137.893 133.64 138.058V135.494C134.561 135.328 135.489 135.019 136.42 134.571L136.445 134.559ZM133.64 135.494V138.058C133.113 138.153 132.588 138.202 132.067 138.202C130.08 138.202 128.141 137.506 126.294 136.07C124.498 134.674 123.426 132.739 123.426 130.237V127.672C123.426 130.174 124.498 132.109 126.294 133.505C128.141 134.941 130.08 135.637 132.067 135.637C132.588 135.637 133.113 135.589 133.64 135.494Z" fill="black"/>
<path d="M101.64 134.191C102.225 134.193 102.805 134.261 103.395 134.388C104.697 134.666 105.867 135.286 106.743 136.464C107.286 137.194 107.551 137.986 107.548 138.762C107.545 139.699 107.152 140.615 106.387 141.378C105.069 142.692 103.495 143.157 101.785 143.225C100.114 143.161 98.5574 142.701 97.2375 141.429C96.4253 140.645 96.0169 139.659 96.0215 138.676C96.0259 137.723 96.4185 136.773 97.2071 136.012C97.2764 135.946 97.3465 135.881 97.4174 135.818C98.6763 134.692 100.076 134.208 101.565 134.192C101.59 134.191 101.615 134.191 101.64 134.191Z" fill="#656267"/>
<path d="M140.987 88.2619C140.968 101.057 140.933 113.852 140.999 126.648C141.019 130.561 139.434 133.125 136.42 134.573C134.954 135.278 133.498 135.639 132.067 135.639C130.079 135.639 128.141 134.943 126.294 133.507C124.395 132.031 123.305 129.953 123.436 127.239C123.552 124.857 124.606 123.014 126.303 121.749C128.215 120.323 130.162 119.629 132.131 119.629C133.935 119.629 135.756 120.211 137.588 121.344C137.678 121.402 137.768 121.46 137.859 121.515C137.935 114.937 137.935 108.373 137.935 101.739C137.727 101.808 137.535 101.868 137.346 101.938C128.588 105.115 119.83 108.296 111.067 111.458C110.659 111.605 110.548 111.804 110.548 112.278C110.562 120.769 110.5 129.259 110.585 137.748C110.623 141.619 109.044 144.15 106.085 145.609C104.601 146.339 103.127 146.711 101.677 146.711C99.6958 146.711 97.7603 146.018 95.9061 144.602C93.3537 142.653 92.3711 139.31 93.4061 136.328C94.2297 133.955 95.8363 132.464 97.8711 131.595C99.2193 131.019 100.554 130.726 101.869 130.726C103.702 130.726 105.5 131.296 107.248 132.464C107.308 132.505 107.369 132.54 107.432 132.574C107.55 132.343 107.55 132.118 107.55 131.893C107.55 121.032 107.549 110.172 107.55 99.3122C107.55 97.8223 107.844 97.3691 109.094 96.9161C119.023 93.3189 128.952 89.7221 138.879 86.1224C138.958 86.0931 139.032 86.0412 139.108 86H139.835C140.71 86.4294 140.988 87.1984 140.987 88.2619ZM137.579 98.2623C137.882 98.1521 137.97 97.9953 137.97 97.6552C137.964 96.3173 137.962 94.9794 137.963 93.6415C137.963 92.9011 137.963 92.1605 137.963 91.4202C137.963 91.1237 137.963 90.8277 137.963 90.5315C137.963 90.3996 137.947 90.2661 137.936 90.109C137.809 90.1368 137.707 90.1474 137.609 90.1822C128.718 93.4047 119.829 96.6299 110.937 99.8415C110.63 99.9531 110.553 100.12 110.553 100.454C110.559 101.802 110.56 103.135 110.56 104.468L110.56 106.245C110.56 106.689 110.56 107.134 110.56 107.578C110.56 107.71 110.574 107.843 110.583 108.01C110.725 107.97 110.843 107.946 110.955 107.905C119.829 104.689 128.701 101.469 137.579 98.2623ZM106.386 141.379C107.151 140.616 107.544 139.7 107.547 138.763C107.55 137.987 107.285 137.196 106.743 136.465C105.866 135.287 104.696 134.668 103.395 134.389C102.805 134.263 102.225 134.194 101.658 134.193C101.615 134.193 101.59 134.193 101.565 134.193C100.075 134.209 98.6758 134.693 97.4168 135.818C97.346 135.882 97.2759 135.947 97.2066 136.013C96.4177 136.773 96.0255 137.723 96.021 138.676C96.0164 139.659 96.4249 140.645 97.2371 141.429C98.557 142.702 100.113 143.161 101.785 143.225C103.495 143.158 105.068 142.693 106.386 141.379ZM136.099 130.907C137.32 130.003 137.979 128.815 137.972 127.605C137.966 126.602 137.503 125.584 136.524 124.698C135.308 123.598 133.883 123.154 132.372 123.124C132.317 123.122 132.261 123.122 132.206 123.122H132.164C130.451 123.13 128.865 123.66 127.544 125.014C126.813 125.763 126.434 126.662 126.428 127.575C126.424 128.331 126.677 129.097 127.2 129.795C128.564 131.614 130.397 132.109 132.374 132.131C132.422 132.131 132.469 132.132 132.517 132.132H132.568C133.843 132.07 135.032 131.697 136.099 130.907Z" fill="#656267"/>
<path d="M110.587 137.887V140.451C110.587 140.654 110.583 140.853 110.574 141.048V138.484C110.583 138.288 110.587 138.089 110.587 137.887ZM110.574 138.484V141.048C110.494 142.779 110.063 144.221 109.306 145.4V142.835C110.063 141.656 110.494 140.215 110.574 138.484ZM109.306 142.836V145.4C108.915 146.009 108.437 146.548 107.875 147.02V144.455C108.437 143.983 108.915 143.444 109.306 142.836ZM107.875 144.455V147.02C107.351 147.461 106.754 147.845 106.087 148.174L106.006 148.213V145.649L106.087 145.609C106.754 145.28 107.351 144.897 107.875 144.455Z" fill="black"/>
<path d="M106.005 145.647V148.212C105.078 148.66 104.155 148.968 103.24 149.133V146.569C104.155 146.404 105.078 146.095 106.005 145.647ZM103.24 146.569V149.133C102.716 149.227 102.195 149.275 101.677 149.275C99.6959 149.275 97.7605 148.582 95.9062 147.167C94.0282 145.732 93 143.544 93 141.299V138.734C93 140.979 94.0281 143.167 95.9062 144.602C97.7604 146.017 99.6958 146.71 101.677 146.71C102.2 146.71 102.722 146.662 103.24 146.569Z" fill="black"/>
</svg>
