<svg width="512" height="513" viewBox="0 0 512 513" fill="none" xmlns="http://www.w3.org/2000/svg">
<path d="M352.9 21.2L308 66.1L445.9 204L490.8 159.1C504.4 145.6 512 127.2 512 108C512 88.8 504.4 70.4 490.8 56.9L455.1 21.2C441.6 7.6 423.2 0 404 0C384.8 0 366.4 7.6 352.9 21.2ZM274.1 100L58.9 315.1C48.2 325.8 40.4 339.2 36.3 353.8L0.900008 481.6C-1.39999 489.9 0.900005 498.9 7.1 505C13.3 511.1 22.2 513.5 30.5 511.2L158.3 475.7C172.9 471.6 186.2 463.9 197 453.1L412 237.9L274.1 100Z" fill="#02C979"/>
</svg>
