<svg width="23" height="23" viewBox="0 0 23 23" fill="none" xmlns="http://www.w3.org/2000/svg">
<path d="M11.2438 22.5C8.17046 22.5 7.80816 22.4838 6.60883 22.4314C5.67356 22.4007 4.7504 22.2108 3.8791 21.87C2.37157 21.2842 1.17952 20.0934 0.59342 18.5878C0.265235 17.7146 0.0882233 16.792 0.0699611 15.8595C0 14.6644 0 14.2727 0 11.2275C0 8.14995 0.016241 7.79067 0.0699611 6.5993C0.0886228 5.66806 0.265629 4.74677 0.59342 3.87475C1.17888 2.36718 2.37287 1.17536 3.88284 0.591317C4.75566 0.262228 5.67853 0.0850104 6.61133 0.0673653C7.80441 0 8.1967 0 11.2438 0C14.342 0 14.6981 0.0162176 15.8787 0.0673653C16.8139 0.0851629 17.7392 0.262362 18.6147 0.591317C20.1242 1.17603 21.318 2.36761 21.9041 3.87475C22.2378 4.75947 22.4157 5.69517 22.43 6.64047C22.5 7.83558 22.5 8.22605 22.5 11.27C22.5 14.3139 22.4825 14.7131 22.43 15.8945C22.4114 16.8278 22.234 17.7513 21.9053 18.6252C21.3177 20.1319 20.1239 21.3231 18.6147 21.9087C17.7405 22.2358 16.817 22.4125 15.8837 22.4314C14.6906 22.5 14.2996 22.5 11.2438 22.5ZM11.2013 1.9748C8.14548 1.9748 7.82815 1.98977 6.63506 2.04341C5.92294 2.05283 5.2177 2.18406 4.54997 2.43139C3.56396 2.80814 2.78374 3.58407 2.40242 4.56712C2.15282 5.24114 2.02139 5.95307 2.01388 6.67166C1.94767 7.88049 1.94767 8.19736 1.94767 11.2275C1.94767 14.2216 1.95891 14.5846 2.01388 15.7859C2.02506 16.4973 2.15642 17.2016 2.40242 17.8693C2.7843 18.8517 3.56439 19.627 4.54997 20.0037C5.21725 20.2527 5.92277 20.384 6.63506 20.3917C7.84439 20.4616 8.16297 20.4616 11.2013 20.4616C14.2658 20.4616 14.5831 20.4466 15.7662 20.3917C16.4788 20.3831 17.1846 20.2518 17.8526 20.0037C18.8326 19.6237 19.6078 18.8502 19.9889 17.8718C20.238 17.1972 20.3694 16.4849 20.3774 15.766H20.3912C20.4449 14.5734 20.4449 14.2552 20.4449 11.2076C20.4449 8.15993 20.4311 7.83932 20.3774 6.64795C20.3662 5.93744 20.2349 5.23392 19.9889 4.56712C19.6086 3.58729 18.8334 2.81224 17.8526 2.43139C17.1848 2.18281 16.4789 2.05155 15.7662 2.04341C14.5582 1.9748 14.2421 1.9748 11.2013 1.9748ZM11.2438 16.9898C8.90754 16.9913 6.8005 15.5872 5.9053 13.4325C5.0101 11.2777 5.50308 8.79657 7.15431 7.14628C8.80555 5.496 11.2898 5.00159 13.4485 5.89363C15.6072 6.78567 17.015 8.88846 17.0155 11.2213C17.0121 14.4038 14.4308 16.9836 11.2438 16.9898ZM11.2438 7.4763C9.17384 7.4763 7.49584 9.15188 7.49584 11.2188C7.49584 13.2857 9.17384 14.9613 11.2438 14.9613C13.3137 14.9613 14.9917 13.2857 14.9917 11.2188C14.9869 9.15387 13.3117 7.4811 11.2438 7.4763ZM17.2404 6.58683C16.4976 6.58407 15.8973 5.98127 15.8987 5.23953C15.9 4.49779 16.5026 3.89721 17.2454 3.89721C17.9882 3.89721 18.5908 4.49778 18.5922 5.23952C18.5925 5.59738 18.4501 5.94065 18.1965 6.19346C17.9428 6.44627 17.5988 6.58782 17.2404 6.58683Z" fill="#08A045"/>
</svg>
