<svg width="513" height="464" viewBox="0 0 513 464" fill="none" xmlns="http://www.w3.org/2000/svg">
<path d="M307.8 2.27778C295.8 7.27778 288 18.8778 288 31.8778V111.878H176C78.8 111.878 0 190.678 0 287.878C0 401.178 81.5 451.778 100.2 461.978C102.7 463.378 105.5 463.878 108.3 463.878C119.2 463.878 128 454.978 128 444.178C128 436.678 123.7 429.778 118.2 424.678C108.8 415.878 96 398.278 96 367.978C96 314.978 139 271.978 192 271.978H288V351.978C288 364.878 295.8 376.578 307.8 381.578C319.8 386.578 333.5 383.778 342.7 374.678L502.7 214.678C515.2 202.178 515.2 181.878 502.7 169.378L342.7 9.37778C333.5 0.177779 319.8 -2.52222 307.8 2.47778V2.27778Z" fill="white"/>
</svg>
