<svg width="20" height="23" viewBox="0 0 20 23" fill="none" xmlns="http://www.w3.org/2000/svg">
<path d="M10.2691 0.0187588C11.4975 7.12794e-08 12.7168 0.00975455 13.9353 0C13.9759 1.52396 14.5942 2.8956 15.5779 3.91158L15.5764 3.91008C16.6351 4.86377 18.0127 5.48206 19.5315 5.58711L19.5525 5.58861V9.36737C18.1178 9.33136 16.7687 9.00045 15.5524 8.43169L15.6139 8.4572C15.0256 8.17431 14.5281 7.88393 14.0554 7.55978L14.0944 7.58529C14.0854 10.3233 14.1034 13.0613 14.0757 15.7896C13.9984 17.18 13.5362 18.4481 12.7948 19.5069L12.8098 19.4836C11.5702 21.2589 9.56231 22.4242 7.27899 22.4932H7.26849C7.17619 22.4977 7.06739 22.5 6.95784 22.5C5.65974 22.5 4.44642 22.1383 3.41244 21.5103L3.44245 21.5275C1.56057 20.3953 0.262466 18.4579 0.0223542 16.2046L0.0193529 16.1738C0.000594129 15.7048 -0.00841014 15.2359 0.0103486 14.7766C0.37802 11.1907 3.38242 8.41668 7.03438 8.41668C7.44482 8.41668 7.84701 8.45195 8.23794 8.51873L8.19592 8.51272C8.21468 9.90012 8.1584 11.2883 8.1584 12.6757C7.841 12.5609 7.47483 12.4941 7.0929 12.4941C5.69125 12.4941 4.49894 13.39 4.05774 14.6408L4.05098 14.6633C3.95119 14.9837 3.89341 15.3522 3.89341 15.7333C3.89341 15.8879 3.90317 16.041 3.92117 16.1911L3.91967 16.173C4.16879 17.7083 5.4849 18.8668 7.07189 18.8668C7.11767 18.8668 7.16269 18.8661 7.20771 18.8638H7.20095C8.29872 18.8308 9.25166 18.2403 9.79041 17.3676L9.79792 17.3541C9.99826 17.075 10.1356 16.7373 10.1813 16.3704L10.1821 16.3599C10.2759 14.6814 10.2384 13.0126 10.2474 11.334C10.2564 7.55528 10.2384 3.78552 10.2661 0.0165078L10.2691 0.0187588Z" fill="#08A045"/>
</svg>
